<svg width="42" height="40" viewBox="0 0 42 40" fill="none" xmlns="http://www.w3.org/2000/svg">
<rect width="42" height="40" rx="20" fill="url(#paint0_linear_301_6)"/>
<path d="M28.625 20.1875C28.625 19.6875 28.5625 19.3125 28.5 18.9062H21.125V21.5625H25.5C25.3438 22.7188 24.1875 24.9062 21.125 24.9062C18.4688 24.9062 16.3125 22.7188 16.3125 20C16.3125 15.6562 21.4375 13.6562 24.1875 16.3125L26.3125 14.2812C24.9688 13.0312 23.1875 12.25 21.125 12.25C16.8125 12.25 13.375 15.7188 13.375 20C13.375 24.3125 16.8125 27.75 21.125 27.75C25.5938 27.75 28.625 24.625 28.625 20.1875Z" fill="white"/>
<defs>
<linearGradient id="paint0_linear_301_6" x1="-1.06329" y1="8.65672" x2="42.3868" y2="14.7862" gradientUnits="userSpaceOnUse">
<stop stop-color="#60BBEE"/>
<stop offset="1" stop-color="#0A72AD"/>
</linearGradient>
</defs>
</svg>
